<svg xmlns="http://www.w3.org/2000/svg" width="160" height="160" viewBox="0 0 120 120"><path d="m36.73 88.723 6.84-49.496 27.715 3.125L83.012 57.48l-5.078 36.07ZM65.691 59.37l3.043-14.02-21.968-2.21-6.223 42.41 34.195 4.187 4.133-28.597ZM50.383 78.06c-.238-.313-2.352-2.082-2.75-2.63 5.62-6.257 19.347-6.179 23.156 2.102-.633.235-3.469 1.461-4.023 1.774-1.59-4.621-10.907-6.078-16.383-1.246Zm10.566-17.114-2.316 1.746-3.48-4.195-4.743 2.543-1.914-3.2 4.313-2.163-2.86-3.446 3.477-2.324 2.77 4.067 4.94-2.477 1.489 2.984-4.453 2.391Zm0 0" style="stroke:none;fill-rule:evenodd;fill:#000;fill-opacity:1"/></svg>