<svg xmlns="http://www.w3.org/2000/svg" viewBox="0 0 133.69 139.41"><defs><style>.cls-1,.cls-2{fill:none;stroke:#f6bc12;stroke-miterlimit:10;}.cls-1{stroke-width:4px;}.cls-2{stroke-width:3px;}</style></defs><title>Fichier 2</title><g id="Calque_2" data-name="Calque 2"><g id="logo"><polygon class="cls-1" points="78.67 2 55.34 2 43.67 22.21 55.34 42.41 78.67 42.41 90.34 22.21 78.67 2"/><polygon class="cls-1" points="78.67 97 55.34 97 43.67 117.21 55.34 137.41 78.67 137.41 90.34 117.21 78.67 97"/><polygon class="cls-1" points="78.67 49 55.34 49 43.67 69.21 55.34 89.41 78.67 89.41 90.34 69.21 78.67 49"/><polygon class="cls-1" points="119.71 25.72 96.38 25.72 84.71 45.92 96.38 66.13 119.71 66.13 131.38 45.92 119.71 25.72"/><polygon class="cls-1" points="119.71 73.25 96.38 73.25 84.71 93.45 96.38 113.66 119.71 113.66 131.38 93.45 119.71 73.25"/><polygon class="cls-1" points="37.31 73.25 13.98 73.25 2.31 93.45 13.98 113.66 37.31 113.66 48.98 93.45 37.31 73.25"/><polygon class="cls-1" points="37.31 25.72 13.98 25.72 2.31 45.92 13.98 66.13 37.31 66.13 48.98 45.92 37.31 25.72"/><polygon class="cls-2" points="73.72 57.58 60.29 57.58 53.58 69.21 60.29 80.84 73.72 80.84 80.44 69.21 73.72 57.58"/></g></g></svg>